<?xml version="1.0" encoding="UTF-8" standalone="no"?>
<svg xmlns="http://www.w3.org/2000/svg" width="128" height="128" viewBox="0 0 128 128" version="1.1">
  <!-- Puzzle piece icon for Game Plugin button — Paper Dark style -->
  <path
     d="M 48,12 L 48,24 C 48,24 48,32 40,32 C 32,32 32,24 32,24 L 32,12 L 12,12 C 8,12 4,16 4,20 L 4,44 L 16,44 C 16,44 24,44 24,52 C 24,60 16,60 16,60 L 4,60 L 4,84 C 4,88 8,92 12,92 L 36,92 L 36,80 C 36,80 36,72 44,72 C 52,72 52,80 52,80 L 52,92 L 76,92 C 80,92 84,88 84,84 L 84,60 L 96,60 C 96,60 104,60 104,52 C 104,44 96,44 96,44 L 84,44 L 84,20 C 84,16 80,12 76,12 Z"
     style="fill:#d3d3d3;fill-opacity:1;stroke:none"
     transform="translate(20,18) scale(1.05)" />
</svg>
